# xmcd CD database file
#
# Track frame offsets:
#	150
#	19822
#	38767
#	59505
#	78800
#	100212
#	119060
#	138770
#	158757
#	175485
#	198627
#
# Disc length: 2945 seconds
#
# Revision: 0
# Processed by: cddbd v1.5PL3 Copyright (c) Steve Scherf et al.
# Submitted via: CDex 1.51
#
DISCID=920b7f0b
DTITLE=endless chain - endless chain
DYEAR=2001
DGENRE=Pop
TTITLE0=PRAYER
TTITLE1=君の空に
TTITLE2=endless chain〜きみという時の流れよ〜
TTITLE3=女と男の３つの法則
TTITLE4=愛は魂の秘密
TTITLE5=絆
TTITLE6=カナリア諸島にて
TTITLE7=SWEET TRAGEDY
TTITLE8=バンジョー・レイン
TTITLE9=ラ・ルミエール
TTITLE10=From somewhere〜風の見える場所へ〜
EXTD=YEAR: 2001
EXTT0=
EXTT1=
EXTT2=
EXTT3=
EXTT4=
EXTT5=
EXTT6=
EXTT7=
EXTT8=
EXTT9=
EXTT10=
PLAYORDER=
